<?xml version="1.0" encoding="utf-8"?>
<!-- Generator: Adobe Illustrator 19.1.0, SVG Export Plug-In . SVG Version: 6.00 Build 0)  -->
<svg version="1.1" id="레이어_1" xmlns="http://www.w3.org/2000/svg" xmlns:xlink="http://www.w3.org/1999/xlink" x="0px"
	 y="0px" viewBox="216 -372 689 1000" style="enable-background:new 216 -372 689 1000;" xml:space="preserve">
<style type="text/css">
	.st0{fill:#FFFFFF;stroke:#000000;stroke-miterlimit:10;}
</style>
<path class="st0" d="M216,508V114.6c0-9.4,3.3-17.5,10-24.2c6.7-6.7,14.7-10,24.2-10h45.4V-67.9c0-36.1,6.7-70.7,20-103.7
	s32-62.2,56.1-87.6c24.1-25.7,52.4-45.6,84.9-59.8s67.2-21.2,103.9-21.2c36.4,0,71,7.2,103.7,21.5s61.1,34.2,85.2,59.5
	c23.7,25.4,42.3,54.6,55.6,87.6c13.3,33,20,67.6,20,103.7V80.5h45.9c9.4,0,17.4,3.3,23.9,10c6.5,6.7,9.8,14.7,9.8,24.2V508
	c0,4.6-0.7,8.5-2.2,11.7c-1.5,3.3-4.1,6.2-7.8,8.8s-7,4.6-9.8,6.1s-7.4,3.7-13.9,6.6c-12.7,5.2-30.5,11.3-53.4,18.3
	c-22.9,7-59.7,15-110.3,23.9c-50.6,8.9-99.6,13.4-147.1,13.4c-100.5,0-203.8-18.5-309.9-55.6c-11.1-3.9-19.5-8.3-25.4-13.2
	C218.9,523.1,216,516.4,216,508L216,508z M421.9,80.5h277.2V-67.9c0-42-14-77.8-42-107.4c-26.7-27.7-58.9-41.8-96.6-42.5
	c-38.1,0.3-70.4,14.5-97.1,42.5c-27.7,29.3-41.5,65.1-41.5,107.4L421.9,80.5L421.9,80.5z"/>
</svg>
